0
SECTION
2
HEADER
9
$ACADVER
1
AC1009
9
$INSUNITS
70
6
0
ENDSEC
0
SECTION
2
TABLES
0
TABLE
2
LAYER
70
6
0
LAYER
2
MUR_AGGLOS
70
0
62
7
6
CONTINUOUS
0
LAYER
2
SEMELLE_BETON
70
0
62
7
6
CONTINUOUS
0
LAYER
2
DALLAGE_BETON
70
0
62
7
6
CONTINUOUS
0
LAYER
2
POTEAU_BETON
70
0
62
7
6
CONTINUOUS
0
LAYER
2
POUTRE_BETON
70
0
62
7
6
CONTINUOUS
0
LAYER
2
REMBLAI_GRAVE
70
0
62
7
6
CONTINUOUS
0
ENDTAB
0
ENDSEC
0
SECTION
2
ENTITIES
0
LINE
8
MUR_AGGLOS
10
0
20
0
30
0
11
10
21
0
31
0
0
LINE
8
MUR_AGGLOS
10
10
20
0
30
0
11
10
21
8
31
0
0
LINE
8
MUR_AGGLOS
10
10
20
8
30
0
11
0
21
8
31
0
0
LINE
8
MUR_AGGLOS
10
0
20
8
30
0
11
0
21
0
31
0
0
LINE
8
MUR_AGGLOS
10
5
20
0
30
0
11
5
21
8
31
0
0
LINE
8
SEMELLE_BETON
10
-0.5
20
-0.5
30
0
11
10.5
21
-0.5
31
0
0
LINE
8
SEMELLE_BETON
10
10.5
20
-0.5
30
0
11
10.5
21
8.5
31
0
0
LINE
8
SEMELLE_BETON
10
10.5
20
8.5
30
0
11
-0.5
21
8.5
31
0
0
LINE
8
SEMELLE_BETON
10
-0.5
20
8.5
30
0
11
-0.5
21
-0.5
31
0
0
POLYLINE
8
DALLAGE_BETON
66
1
70
1
0
VERTEX
8
DALLAGE_BETON
10
0
20
0
30
0
0
VERTEX
8
DALLAGE_BETON
10
10
20
0
30
0
0
VERTEX
8
DALLAGE_BETON
10
10
20
8
30
0
0
VERTEX
8
DALLAGE_BETON
10
0
20
8
30
0
0
SEQEND
0
CIRCLE
8
POTEAU_BETON
10
0
20
0
30
0
40
0.12
0
CIRCLE
8
POTEAU_BETON
10
10
20
0
30
0
40
0.12
0
CIRCLE
8
POTEAU_BETON
10
10
20
8
30
0
40
0.12
0
CIRCLE
8
POTEAU_BETON
10
0
20
8
30
0
40
0.12
0
LINE
8
POUTRE_BETON
10
0
20
4
30
0
11
10
21
4
31
0
0
POLYLINE
8
REMBLAI_GRAVE
66
1
70
1
0
VERTEX
8
REMBLAI_GRAVE
10
-1
20
-1
30
0
0
VERTEX
8
REMBLAI_GRAVE
10
11
20
-1
30
0
0
VERTEX
8
REMBLAI_GRAVE
10
11
20
9
30
0
0
VERTEX
8
REMBLAI_GRAVE
10
-1
20
9
30
0
0
SEQEND
0
ENDSEC
0
EOF
